# xmcd
#
# Track frame offsets: 
#        150
#        26546
#        56581
#        86495
#        96686
#        117591
#        150458
#        168029
#        191677
#        211971
#        221449
#
# Disc length: 3096 seconds
#
# Revision: 2
# Processed by: cddbd v1.5.2PL0 Copyright (c) Steve Scherf et al.
# Submitted via: ExactAudioCopyFreeDBPlugin 1.0
#
DISCID=930c160b
DTITLE=Herbie Hancock - The Blow Up Extra Sessions
DYEAR=1966
DGENRE=Jazz
TTITLE0=Herbie's Blues
TTITLE1=Rock Your Soul
TTITLE2=Jammin' with Herbie
TTITLE3=Hot and Heavy
TTITLE4=Night Walker
TTITLE5=Hot Piano
TTITLE6=Live and Awake
TTITLE7=Scoochie
TTITLE8=Witch Fire
TTITLE9=Afro Boogie
TTITLE10=Far Out
EXTD=
EXTT0=
EXTT1=
EXTT2=
EXTT3=
EXTT4=
EXTT5=
EXTT6=
EXTT7=
EXTT8=
EXTT9=
EXTT10=
PLAYORDER=
